<svg xmlns="http://www.w3.org/2000/svg" width="32" height="32" viewBox="0 0 32 32"><path d="M26.312 13.242c-.236-.86-.573-1.674-1.004-2.43.515-.654 2.226-3.02 1.015-4.233l-.625-.663c-1.036-1.034-3.71.47-4.395.885-.77-.44-1.6-.774-2.477-1.01-.142-.865-.754-3.818-2.464-3.818h-.687c-1.47 0-2.317 3.06-2.508 3.84-.862.24-1.68.58-2.438 1.017-.634-.447-3.203-2.133-4.44-.897l-.66.555c-1.074 1.075.733 3.847 1.1 4.383-.42.748-.798 1.55-1.028 2.393-.735.118-3.835.714-3.835 2.475v.687c0 1.52 3.223 2.37 3.85 2.523.234.84.593 1.638 1.014 2.38-.362.6-1.99 3.453-.927 4.517l.632.52c1.417 1.417 4.32-.97 4.32-.97l-.11-.117c.778.457 1.62.87 2.508 1.118.16.646 1.01 3.844 2.523 3.844h.687c2.002 0 2.5-3.788 2.5-3.788l-.133-.03c.893-.23 1.74-.59 2.527-1.032.634.424 3.125 1.972 4.162.937l.695-.7c1.353-1.352-.635-4.028-.814-4.263.434-.758.77-1.575 1.01-2.435.804-.2 3.825-1.043 3.825-2.505v-.687c0-1.908-3.492-2.45-3.822-2.495zM15.97 20.935c-2.645 0-4.788-2.21-4.788-4.854s2.143-4.787 4.788-4.787c2.643 0 4.89 2.143 4.89 4.788 0 2.644-2.247 4.855-4.89 4.855z"/></svg>